<mxfile host="app.diagrams.net" modified="2021-06-02T07:14:23.853Z" agent="5.0 (Windows NT 10.0; WOW64) AppleWebKit/537.36 (KHTML, like Gecko) Chrome/67.0.3396.62 Safari/537.36" etag="zFCAHqlF5i7HrYB1EWKW" version="14.7.3" type="github">
  <diagram id="88q8f5QfLMgU3xaFjLat" name="Page-1">
    <mxGraphModel dx="1636" dy="907" grid="1" gridSize="10" guides="1" tooltips="1" connect="1" arrows="1" fold="1" page="1" pageScale="1" pageWidth="850" pageHeight="1100" math="0" shadow="0">
      <root>
        <mxCell id="0" />
        <mxCell id="1" parent="0" />
        <mxCell id="CclwgMhJFwuFRqRoiKUH-4" style="edgeStyle=orthogonalEdgeStyle;rounded=0;orthogonalLoop=1;jettySize=auto;html=1;exitX=1;exitY=0.5;exitDx=0;exitDy=0;entryX=0;entryY=0.5;entryDx=0;entryDy=0;" edge="1" parent="1" source="CclwgMhJFwuFRqRoiKUH-2" target="CclwgMhJFwuFRqRoiKUH-3">
          <mxGeometry relative="1" as="geometry">
            <Array as="points">
              <mxPoint x="270" y="190" />
              <mxPoint x="270" y="190" />
            </Array>
          </mxGeometry>
        </mxCell>
        <mxCell id="CclwgMhJFwuFRqRoiKUH-6" style="edgeStyle=orthogonalEdgeStyle;rounded=0;orthogonalLoop=1;jettySize=auto;html=1;curved=1;endArrow=oval;endFill=1;startArrow=oval;startFill=1;" edge="1" parent="1" source="CclwgMhJFwuFRqRoiKUH-3" target="CclwgMhJFwuFRqRoiKUH-5">
          <mxGeometry relative="1" as="geometry" />
        </mxCell>
        <mxCell id="CclwgMhJFwuFRqRoiKUH-5" value="小地图可观察到所有占领点位置" style="rounded=1;whiteSpace=wrap;html=1;strokeWidth=2;fillColor=#d5e8d4;strokeColor=#82b366;" vertex="1" parent="1">
          <mxGeometry x="240" y="280" width="120" height="60" as="geometry" />
        </mxCell>
        <mxCell id="CclwgMhJFwuFRqRoiKUH-10" style="edgeStyle=orthogonalEdgeStyle;rounded=0;orthogonalLoop=1;jettySize=auto;html=1;exitX=1;exitY=0.5;exitDx=0;exitDy=0;entryX=0;entryY=0.5;entryDx=0;entryDy=0;" edge="1" parent="1" source="CclwgMhJFwuFRqRoiKUH-3" target="CclwgMhJFwuFRqRoiKUH-8">
          <mxGeometry relative="1" as="geometry">
            <mxPoint x="210" y="200" as="sourcePoint" />
            <mxPoint x="290" y="200" as="targetPoint" />
            <Array as="points">
              <mxPoint x="440" y="190" />
              <mxPoint x="440" y="190" />
            </Array>
          </mxGeometry>
        </mxCell>
        <mxCell id="CclwgMhJFwuFRqRoiKUH-13" style="edgeStyle=orthogonalEdgeStyle;rounded=0;orthogonalLoop=1;jettySize=auto;html=1;curved=1;endArrow=oval;endFill=1;startArrow=oval;startFill=1;entryX=0.5;entryY=0;entryDx=0;entryDy=0;" edge="1" parent="1" target="CclwgMhJFwuFRqRoiKUH-14">
          <mxGeometry relative="1" as="geometry">
            <mxPoint x="540" y="220" as="sourcePoint" />
            <Array as="points">
              <mxPoint x="540" y="250" />
              <mxPoint x="500" y="250" />
            </Array>
          </mxGeometry>
        </mxCell>
        <mxCell id="CclwgMhJFwuFRqRoiKUH-14" value="显示占领点详细信息，目标UI更新" style="rounded=1;whiteSpace=wrap;html=1;strokeWidth=2;fillColor=#d5e8d4;strokeColor=#82b366;" vertex="1" parent="1">
          <mxGeometry x="440" y="280" width="120" height="60" as="geometry" />
        </mxCell>
        <mxCell id="CclwgMhJFwuFRqRoiKUH-16" style="edgeStyle=orthogonalEdgeStyle;curved=1;rounded=0;orthogonalLoop=1;jettySize=auto;html=1;entryX=0.5;entryY=0;entryDx=0;entryDy=0;startArrow=oval;startFill=1;endArrow=oval;endFill=1;" edge="1" parent="1" source="CclwgMhJFwuFRqRoiKUH-15" target="CclwgMhJFwuFRqRoiKUH-3">
          <mxGeometry relative="1" as="geometry" />
        </mxCell>
        <mxCell id="CclwgMhJFwuFRqRoiKUH-18" style="edgeStyle=orthogonalEdgeStyle;curved=1;rounded=0;orthogonalLoop=1;jettySize=auto;html=1;entryX=0.5;entryY=0;entryDx=0;entryDy=0;startArrow=oval;startFill=1;endArrow=oval;endFill=1;" edge="1" parent="1" source="CclwgMhJFwuFRqRoiKUH-15" target="CclwgMhJFwuFRqRoiKUH-8">
          <mxGeometry relative="1" as="geometry" />
        </mxCell>
        <mxCell id="CclwgMhJFwuFRqRoiKUH-15" value="&lt;span style=&quot;font-size: 14px&quot;&gt;开启区域副本前均可调整队伍阵容&lt;/span&gt;" style="rounded=0;whiteSpace=wrap;html=1;strokeWidth=2;fillColor=#e1d5e7;strokeColor=#9673a6;" vertex="1" parent="1">
          <mxGeometry x="380" y="50" width="120" height="60" as="geometry" />
        </mxCell>
        <mxCell id="CclwgMhJFwuFRqRoiKUH-21" style="edgeStyle=orthogonalEdgeStyle;rounded=0;orthogonalLoop=1;jettySize=auto;html=1;exitX=1;exitY=0.5;exitDx=0;exitDy=0;entryX=0;entryY=0.5;entryDx=0;entryDy=0;" edge="1" parent="1" source="CclwgMhJFwuFRqRoiKUH-8" target="CclwgMhJFwuFRqRoiKUH-12">
          <mxGeometry relative="1" as="geometry">
            <mxPoint x="410" y="200" as="sourcePoint" />
            <mxPoint x="490" y="200" as="targetPoint" />
            <Array as="points">
              <mxPoint x="640" y="190" />
              <mxPoint x="640" y="190" />
            </Array>
          </mxGeometry>
        </mxCell>
        <mxCell id="CclwgMhJFwuFRqRoiKUH-40" style="edgeStyle=orthogonalEdgeStyle;curved=1;rounded=0;orthogonalLoop=1;jettySize=auto;html=1;exitX=0.5;exitY=1;exitDx=0;exitDy=0;entryX=0.5;entryY=0;entryDx=0;entryDy=0;fontSize=14;startArrow=oval;startFill=1;endArrow=oval;endFill=1;" edge="1" parent="1" source="CclwgMhJFwuFRqRoiKUH-27" target="CclwgMhJFwuFRqRoiKUH-39">
          <mxGeometry relative="1" as="geometry" />
        </mxCell>
        <mxCell id="CclwgMhJFwuFRqRoiKUH-28" style="edgeStyle=orthogonalEdgeStyle;rounded=0;orthogonalLoop=1;jettySize=auto;html=1;curved=1;endArrow=oval;endFill=1;startArrow=oval;startFill=1;exitX=0.5;exitY=1;exitDx=0;exitDy=0;entryX=0.5;entryY=0;entryDx=0;entryDy=0;" edge="1" parent="1" source="CclwgMhJFwuFRqRoiKUH-2" target="CclwgMhJFwuFRqRoiKUH-27">
          <mxGeometry relative="1" as="geometry">
            <mxPoint x="350" y="230" as="sourcePoint" />
            <mxPoint x="310" y="290" as="targetPoint" />
          </mxGeometry>
        </mxCell>
        <mxCell id="CclwgMhJFwuFRqRoiKUH-33" style="edgeStyle=orthogonalEdgeStyle;rounded=0;orthogonalLoop=1;jettySize=auto;html=1;exitX=1;exitY=0.5;exitDx=0;exitDy=0;entryX=0;entryY=0.5;entryDx=0;entryDy=0;" edge="1" parent="1" source="CclwgMhJFwuFRqRoiKUH-12" target="CclwgMhJFwuFRqRoiKUH-34">
          <mxGeometry relative="1" as="geometry">
            <mxPoint x="610" y="200" as="sourcePoint" />
            <mxPoint x="690" y="200" as="targetPoint" />
            <Array as="points">
              <mxPoint x="840" y="190" />
              <mxPoint x="840" y="190" />
            </Array>
          </mxGeometry>
        </mxCell>
        <mxCell id="CclwgMhJFwuFRqRoiKUH-42" style="edgeStyle=orthogonalEdgeStyle;curved=1;rounded=0;orthogonalLoop=1;jettySize=auto;html=1;fontSize=14;startArrow=oval;startFill=1;endArrow=oval;endFill=1;" edge="1" parent="1" source="CclwgMhJFwuFRqRoiKUH-34">
          <mxGeometry relative="1" as="geometry">
            <mxPoint x="940" y="480" as="targetPoint" />
          </mxGeometry>
        </mxCell>
        <mxCell id="CclwgMhJFwuFRqRoiKUH-46" style="edgeStyle=orthogonalEdgeStyle;rounded=0;orthogonalLoop=1;jettySize=auto;html=1;entryX=0;entryY=0.5;entryDx=0;entryDy=0;fontSize=14;startArrow=none;startFill=0;endArrow=classicThin;endFill=1;" edge="1" parent="1" target="CclwgMhJFwuFRqRoiKUH-45">
          <mxGeometry relative="1" as="geometry">
            <mxPoint x="940" y="280" as="sourcePoint" />
            <Array as="points">
              <mxPoint x="1010" y="280" />
              <mxPoint x="1010" y="280" />
            </Array>
          </mxGeometry>
        </mxCell>
        <mxCell id="CclwgMhJFwuFRqRoiKUH-41" style="edgeStyle=orthogonalEdgeStyle;curved=1;rounded=0;orthogonalLoop=1;jettySize=auto;html=1;exitX=0.5;exitY=1;exitDx=0;exitDy=0;fontSize=14;startArrow=oval;startFill=1;endArrow=oval;endFill=1;" edge="1" parent="1" source="CclwgMhJFwuFRqRoiKUH-35" target="CclwgMhJFwuFRqRoiKUH-34">
          <mxGeometry relative="1" as="geometry" />
        </mxCell>
        <mxCell id="CclwgMhJFwuFRqRoiKUH-36" style="edgeStyle=orthogonalEdgeStyle;curved=1;rounded=0;orthogonalLoop=1;jettySize=auto;html=1;startArrow=oval;startFill=1;endArrow=oval;endFill=1;exitX=0.5;exitY=1;exitDx=0;exitDy=0;" edge="1" parent="1" source="CclwgMhJFwuFRqRoiKUH-35">
          <mxGeometry relative="1" as="geometry">
            <mxPoint x="840" y="120" as="sourcePoint" />
            <mxPoint x="740" y="160" as="targetPoint" />
          </mxGeometry>
        </mxCell>
        <mxCell id="CclwgMhJFwuFRqRoiKUH-38" style="edgeStyle=orthogonalEdgeStyle;curved=1;rounded=0;orthogonalLoop=1;jettySize=auto;html=1;fontSize=14;startArrow=oval;startFill=1;endArrow=oval;endFill=1;exitX=0.5;exitY=0;exitDx=0;exitDy=0;" edge="1" parent="1" source="CclwgMhJFwuFRqRoiKUH-37" target="CclwgMhJFwuFRqRoiKUH-12">
          <mxGeometry relative="1" as="geometry">
            <mxPoint x="680" y="270" as="targetPoint" />
          </mxGeometry>
        </mxCell>
        <mxCell id="CclwgMhJFwuFRqRoiKUH-47" style="edgeStyle=orthogonalEdgeStyle;rounded=0;orthogonalLoop=1;jettySize=auto;html=1;entryX=0.5;entryY=1;entryDx=0;entryDy=0;fontSize=14;startArrow=none;startFill=0;endArrow=oval;endFill=1;dashed=1;" edge="1" parent="1" source="CclwgMhJFwuFRqRoiKUH-39" target="CclwgMhJFwuFRqRoiKUH-45">
          <mxGeometry relative="1" as="geometry">
            <Array as="points">
              <mxPoint x="100" y="440" />
              <mxPoint x="1140" y="440" />
            </Array>
          </mxGeometry>
        </mxCell>
        <mxCell id="CclwgMhJFwuFRqRoiKUH-39" value="开启该局倒计时" style="rounded=1;whiteSpace=wrap;html=1;strokeWidth=2;fillColor=#d5e8d4;strokeColor=#82b366;" vertex="1" parent="1">
          <mxGeometry x="40" y="360" width="120" height="60" as="geometry" />
        </mxCell>
        <mxCell id="CclwgMhJFwuFRqRoiKUH-43" style="edgeStyle=orthogonalEdgeStyle;curved=1;rounded=0;orthogonalLoop=1;jettySize=auto;html=1;fontSize=14;startArrow=oval;startFill=1;endArrow=oval;endFill=1;" edge="1" parent="1">
          <mxGeometry relative="1" as="geometry">
            <mxPoint x="420" y="480" as="targetPoint" />
            <mxPoint x="940" y="480" as="sourcePoint" />
            <Array as="points">
              <mxPoint x="940" y="480" />
            </Array>
          </mxGeometry>
        </mxCell>
        <mxCell id="CclwgMhJFwuFRqRoiKUH-44" style="edgeStyle=orthogonalEdgeStyle;rounded=0;orthogonalLoop=1;jettySize=auto;html=1;endArrow=classicThin;endFill=1;startArrow=oval;startFill=1;" edge="1" parent="1">
          <mxGeometry relative="1" as="geometry">
            <mxPoint x="420" y="480" as="sourcePoint" />
            <mxPoint x="420" y="190" as="targetPoint" />
          </mxGeometry>
        </mxCell>
        <mxCell id="CclwgMhJFwuFRqRoiKUH-45" value="&lt;span style=&quot;font-size: 14px&quot;&gt;倒计时结束，进入结算界面&lt;/span&gt;" style="rounded=0;whiteSpace=wrap;html=1;strokeWidth=2;" vertex="1" parent="1">
          <mxGeometry x="1080" y="250" width="120" height="60" as="geometry" />
        </mxCell>
        <mxCell id="CclwgMhJFwuFRqRoiKUH-50" style="edgeStyle=orthogonalEdgeStyle;curved=1;rounded=0;orthogonalLoop=1;jettySize=auto;html=1;exitX=0.5;exitY=1;exitDx=0;exitDy=0;entryX=0.5;entryY=0;entryDx=0;entryDy=0;fontSize=14;startArrow=oval;startFill=1;endArrow=oval;endFill=1;" edge="1" parent="1" source="CclwgMhJFwuFRqRoiKUH-37" target="CclwgMhJFwuFRqRoiKUH-48">
          <mxGeometry relative="1" as="geometry">
            <mxPoint x="110" y="350" as="sourcePoint" />
            <mxPoint x="110" y="370" as="targetPoint" />
          </mxGeometry>
        </mxCell>
        <mxCell id="CclwgMhJFwuFRqRoiKUH-37" value="战斗中小队死亡会回到checkpoint，占领点状态保留，不会重置" style="rounded=1;whiteSpace=wrap;html=1;strokeWidth=2;fillColor=#d5e8d4;strokeColor=#82b366;" vertex="1" parent="1">
          <mxGeometry x="640" y="280" width="120" height="60" as="geometry" />
        </mxCell>
        <mxCell id="CclwgMhJFwuFRqRoiKUH-48" value="战斗中撤离该据点，据点状态保留，不会重置" style="rounded=1;whiteSpace=wrap;html=1;strokeWidth=2;fillColor=#d5e8d4;strokeColor=#82b366;" vertex="1" parent="1">
          <mxGeometry x="640" y="360" width="120" height="60" as="geometry" />
        </mxCell>
        <mxCell id="CclwgMhJFwuFRqRoiKUH-2" value="&lt;font style=&quot;font-size: 14px&quot;&gt;玩家出生&lt;/font&gt;" style="rounded=0;whiteSpace=wrap;html=1;strokeWidth=2;" vertex="1" parent="1">
          <mxGeometry x="80" y="160" width="120" height="60" as="geometry" />
        </mxCell>
        <mxCell id="CclwgMhJFwuFRqRoiKUH-8" value="&lt;span style=&quot;font-size: 14px&quot;&gt;进入占领点区域（无缝），开启占领点区域副本&lt;/span&gt;" style="rounded=0;whiteSpace=wrap;html=1;strokeWidth=2;" vertex="1" parent="1">
          <mxGeometry x="480" y="160" width="120" height="60" as="geometry" />
        </mxCell>
        <mxCell id="CclwgMhJFwuFRqRoiKUH-12" value="&lt;span style=&quot;font-size: 14px&quot;&gt;完成占领点挑战&lt;/span&gt;" style="rounded=0;whiteSpace=wrap;html=1;strokeWidth=2;" vertex="1" parent="1">
          <mxGeometry x="680" y="160" width="120" height="60" as="geometry" />
        </mxCell>
        <mxCell id="CclwgMhJFwuFRqRoiKUH-55" style="edgeStyle=orthogonalEdgeStyle;rounded=0;orthogonalLoop=1;jettySize=auto;html=1;entryX=0;entryY=0.5;entryDx=0;entryDy=0;fontSize=14;startArrow=none;startFill=0;endArrow=classic;endFill=1;" edge="1" parent="1" target="CclwgMhJFwuFRqRoiKUH-51">
          <mxGeometry relative="1" as="geometry">
            <mxPoint x="950" y="280" as="sourcePoint" />
            <Array as="points">
              <mxPoint x="1040" y="280" />
              <mxPoint x="1040" y="190" />
            </Array>
          </mxGeometry>
        </mxCell>
        <mxCell id="CclwgMhJFwuFRqRoiKUH-34" value="&lt;span style=&quot;font-size: 14px&quot;&gt;前往下一个占领点&lt;/span&gt;" style="rounded=0;whiteSpace=wrap;html=1;strokeWidth=2;" vertex="1" parent="1">
          <mxGeometry x="880" y="160" width="120" height="60" as="geometry" />
        </mxCell>
        <mxCell id="CclwgMhJFwuFRqRoiKUH-27" value="玩家根据占领点玩点、难度、积分奖励和占领点距离规划行动路线。" style="rounded=1;whiteSpace=wrap;html=1;strokeWidth=2;fillColor=#d5e8d4;strokeColor=#82b366;" vertex="1" parent="1">
          <mxGeometry x="40" y="280" width="120" height="60" as="geometry" />
        </mxCell>
        <mxCell id="CclwgMhJFwuFRqRoiKUH-3" value="&lt;font style=&quot;font-size: 14px&quot;&gt;前往目标占领点&lt;/font&gt;" style="rounded=0;whiteSpace=wrap;html=1;strokeWidth=2;" vertex="1" parent="1">
          <mxGeometry x="280" y="160" width="120" height="60" as="geometry" />
        </mxCell>
        <mxCell id="CclwgMhJFwuFRqRoiKUH-35" value="&lt;span style=&quot;font-size: 14px&quot;&gt;地图中有若干补给点，可适当恢复战损（血量）&lt;/span&gt;" style="rounded=0;whiteSpace=wrap;html=1;strokeWidth=2;fillColor=#e1d5e7;strokeColor=#9673a6;" vertex="1" parent="1">
          <mxGeometry x="780" y="50" width="120" height="60" as="geometry" />
        </mxCell>
        <mxCell id="CclwgMhJFwuFRqRoiKUH-51" value="&lt;span style=&quot;font-size: 14px&quot;&gt;拿满180积分，完成本局游戏，进入结算界面&lt;/span&gt;" style="rounded=0;whiteSpace=wrap;html=1;strokeWidth=2;" vertex="1" parent="1">
          <mxGeometry x="1080" y="160" width="120" height="60" as="geometry" />
        </mxCell>
      </root>
    </mxGraphModel>
  </diagram>
</mxfile>
